<?xml version="1.0" encoding="UTF-8"?>
<svg id="Layer_1" xmlns="http://www.w3.org/2000/svg" viewBox="0 0 226.77 141.73">
  <defs>
    <style>
      .cls-1 {
        fill: #fff;
      }

      .cls-2 {
        opacity: .4;
      }

      .cls-3 {
        fill: #56b2c4;
      }

      .cls-4 {
        fill: none;
      }

      .cls-5 {
        fill: #3dbace;
      }
    </style>
  </defs>
  <rect class="cls-5" x="145.06" y="10.16" width="7.57" height="79.69"/>
  <rect class="cls-4" x="145.06" y="10.16" width="7.57" height="79.69"/>
  <g>
    <rect class="cls-5" x="72.09" y="10" width="7.57" height="79.69"/>
    <rect class="cls-5" x="87.59" y="10" width="7.57" height="79.69"/>
    <path class="cls-5" d="M123.61,10.16v35.74h-10.4l.08-.49c.01-.11-.06-.23-.16-.27l-.43-.19c-.09-.04-.18-.17-.18-.27,0,0,0-.05-.02-.18v-.04s.05-.14.14-.19l.38-.26c.09-.06.14-.19.11-.3l-.25-.7c-.05-.1-.17-.17-.27-.16l-.46.05c-.11.02-.24-.04-.29-.12-.05-.08-.16-.35-.12-.45l.21-.42c.04-.09.02-.24-.06-.31l-.57-.48c-.08-.06-.23-.06-.32,0l-.37.27c-.08.06-.23.08-.31.04-.08-.04-.32-.23-.32-.33l-.04-.46c0-.11-.1-.22-.2-.24l-.74-.13c-.11-.01-.23.06-.27.16l-.19.43c-.04.09-.17.18-.27.18,0,0-.05,0-.18.02h-.05s-.13-.05-.19-.14l-.26-.38c-.06-.09-.19-.14-.3-.11l-.7.26c-.1.04-.17.16-.16.27l.05.46c.01.11-.04.24-.12.29-.08.05-.35.16-.45.12l-.42-.2c-.1-.05-.24-.02-.31.06l-.48.57c-.06.08-.06.23,0,.32l.27.37c.06.09.08.23.04.31-.04.08-.23.32-.33.32l-.46.04c-.11,0-.22.1-.24.21l-.13.74c-.02.11.06.23.16.27l.42.19c.1.04.18.16.19.27,0,0,0,.05.02.18v.04s-.05.14-.14.19l-.29.2h-2.5V10h7.57v28.33h6.76V10.16h7.57Z"/>
    <path class="cls-5" d="M123.44,53.64v35.9h-7.57v-28.33h-6.76v28.17h-7.57v-35.74h6.58l.23.63c.02.06.06.11.11.14.08.07.19.11.29.09l.68-.07c.16-.02.35.06.42.17.08.12.24.52.17.66l-.29.61c-.07.15-.03.34.08.46l.84.7c.13.09.34.09.46,0l.55-.4c.13-.1.33-.12.45-.06.12.06.46.33.48.48l.05.68c.01.15.15.32.31.35l1.08.18c.15.02.34-.08.4-.23l.27-.62c.06-.15.25-.27.41-.28,0,0,.07,0,.26-.02h.06c.07-.02.19.08.29.21l.38.57c.08.13.28.19.44.15l1.02-.38c.15-.06.25-.24.24-.4l-.08-.68c-.02-.15.06-.34.18-.42.11-.08.51-.24.65-.17l.61.29c.15.07.35.03.46-.08l.7-.84c.1-.13.1-.34,0-.46l-.36-.51-.04-.05c-.09-.13-.12-.33-.06-.45.03-.06.1-.16.19-.26h3.36Z"/>
    <rect class="cls-5" x="129.56" y="10.16" width="7.57" height="79.69"/>
    <g class="cls-2">
      <g>
        <g>
          <path class="cls-1" d="M147.51,86.6h1.21v-1.4h-1.21v-.38h2.89v.38h-1.36v1.4h1.36v.37h-2.89v-.37Z"/>
          <path class="cls-1" d="M148.92,81.71c1,0,1.52.61,1.52,1.34s-.59,1.3-1.47,1.3c-.92,0-1.52-.57-1.52-1.34s.61-1.3,1.46-1.3ZM148.97,83.95c.62,0,1.17-.34,1.17-.92s-.55-.93-1.2-.93c-.58,0-1.18.3-1.18.92s.57.93,1.21.93Z"/>
          <path class="cls-1" d="M147.54,81.23c-.03-.16-.06-.42-.06-.68,0-.37.06-.61.21-.79.11-.15.28-.24.51-.24.28,0,.52.18.64.49h0c.07-.27.3-.6.73-.6.25,0,.44.1.58.25.18.2.27.53.27,1,0,.26-.02.45-.03.58h-2.85ZM148.73,80.85v-.34c0-.4-.21-.63-.48-.63-.34,0-.47.26-.47.64,0,.17.01.27.03.33h.93ZM150.12,80.85c.01-.07.02-.18.02-.31,0-.39-.14-.74-.56-.74-.39,0-.56.34-.56.75v.31h1.1Z"/>
          <path class="cls-1" d="M147.54,78.91c-.03-.16-.06-.42-.06-.68,0-.37.06-.61.21-.79.11-.15.28-.24.51-.24.28,0,.52.18.64.49h0c.07-.27.3-.6.73-.6.25,0,.44.1.58.25.18.2.27.53.27,1,0,.26-.02.45-.03.58h-2.85ZM148.73,78.53v-.34c0-.4-.21-.63-.48-.63-.34,0-.47.26-.47.64,0,.17.01.27.03.33h.93ZM150.12,78.53c.01-.07.02-.18.02-.31,0-.39-.14-.74-.56-.74-.39,0-.56.34-.56.75v.31h1.1Z"/>
          <path class="cls-1" d="M150.4,76.19h-1.23l-1.67.91v-.43l.8-.41c.22-.11.39-.2.6-.29h0c-.19-.09-.38-.19-.6-.3l-.8-.42v-.43l1.66.97h1.23v.38Z"/>
          <path class="cls-1" d="M147.51,73.24h1.21v-1.4h-1.21v-.38h2.89v.38h-1.36v1.4h1.36v.37h-2.89v-.37Z"/>
          <path class="cls-1" d="M147.51,70.45h1.71c.65,0,.92-.29.92-.68,0-.43-.28-.7-.92-.7h-1.71v-.38h1.69c.89,0,1.25.47,1.25,1.09,0,.59-.34,1.04-1.24,1.04h-1.7v-.38Z"/>
          <path class="cls-1" d="M147.54,68.05c-.03-.16-.06-.42-.06-.68,0-.37.06-.61.21-.79.11-.15.28-.24.51-.24.28,0,.52.18.64.49h0c.07-.27.3-.6.73-.6.25,0,.44.1.58.25.18.2.27.53.27,1,0,.26-.02.45-.03.58h-2.85ZM148.73,67.67v-.34c0-.39-.21-.63-.48-.63-.34,0-.47.26-.47.64,0,.17.01.27.03.33h.93ZM150.12,67.67c.01-.07.02-.18.02-.31,0-.39-.14-.74-.56-.74-.39,0-.56.34-.56.75v.31h1.1Z"/>
          <path class="cls-1" d="M147.54,64.82c-.03-.23-.06-.5-.06-.79,0-.54.12-.92.36-1.17.24-.26.57-.41,1.04-.41s.86.15,1.13.42c.27.27.42.72.42,1.28,0,.27-.01.49-.03.68h-2.85ZM150.1,64.44c.02-.09.02-.23.02-.38,0-.8-.45-1.23-1.23-1.23-.68,0-1.12.38-1.12,1.17,0,.19.02.34.04.44h2.28Z"/>
          <path class="cls-1" d="M147.51,61.59h1.71c.65,0,.92-.29.92-.67,0-.43-.28-.7-.92-.7h-1.71v-.38h1.69c.89,0,1.25.47,1.25,1.09,0,.59-.34,1.04-1.24,1.04h-1.7v-.38Z"/>
          <path class="cls-1" d="M147.54,59.19c-.03-.16-.06-.42-.06-.68,0-.37.06-.61.21-.79.11-.15.28-.24.51-.24.28,0,.52.18.64.49h0c.07-.27.3-.6.73-.6.25,0,.44.1.58.24.18.2.27.53.27,1,0,.26-.02.45-.03.58h-2.85ZM148.73,58.82v-.34c0-.39-.21-.63-.48-.63-.34,0-.47.26-.47.64,0,.17.01.27.03.33h.93ZM150.12,58.82c.01-.07.02-.18.02-.31,0-.39-.14-.74-.56-.74-.39,0-.56.34-.56.75v.31h1.1Z"/>
          <path class="cls-1" d="M149.49,56.48l.91.3v.39l-2.89-.98v-.45l2.89-.99v.4l-.91.31v1.03ZM149.2,55.53l-.83.28c-.19.06-.36.11-.53.15h0c.17.05.35.1.52.15l.84.28v-.87Z"/>
          <path class="cls-1" d="M147.51,53.96h2.89v.37h-2.89v-.37Z"/>
        </g>
        <g>
          <path class="cls-1" d="M147.51,48.21h1.21v-1.4h-1.21v-.38h2.89v.38h-1.36v1.4h1.36v.37h-2.89v-.37Z"/>
          <path class="cls-1" d="M148.92,43.32c1,0,1.52.61,1.52,1.34s-.59,1.3-1.47,1.3c-.92,0-1.52-.57-1.52-1.34s.61-1.3,1.46-1.3ZM148.97,45.56c.62,0,1.17-.34,1.17-.92s-.55-.93-1.2-.93c-.58,0-1.18.3-1.18.92s.57.93,1.21.93Z"/>
          <path class="cls-1" d="M147.54,42.84c-.03-.16-.06-.42-.06-.68,0-.37.06-.61.21-.79.11-.15.28-.24.51-.24.28,0,.52.18.64.49h0c.07-.27.3-.6.73-.6.25,0,.44.1.58.25.18.2.27.53.27,1,0,.26-.02.45-.03.58h-2.85ZM148.73,42.46v-.34c0-.4-.21-.63-.48-.63-.34,0-.47.26-.47.64,0,.17.01.27.03.33h.93ZM150.12,42.46c.01-.07.02-.18.02-.31,0-.39-.14-.74-.56-.74-.39,0-.56.34-.56.75v.31h1.1Z"/>
          <path class="cls-1" d="M147.54,40.52c-.03-.16-.06-.42-.06-.68,0-.37.06-.61.21-.79.11-.15.28-.24.51-.24.28,0,.52.18.64.49h0c.07-.27.3-.6.73-.6.25,0,.44.1.58.25.18.2.27.53.27,1,0,.26-.02.45-.03.58h-2.85ZM148.73,40.14v-.34c0-.4-.21-.63-.48-.63-.34,0-.47.26-.47.64,0,.17.01.27.03.33h.93ZM150.12,40.14c.01-.07.02-.18.02-.31,0-.39-.14-.74-.56-.74-.39,0-.56.34-.56.75v.31h1.1Z"/>
          <path class="cls-1" d="M150.4,37.8h-1.23l-1.67.91v-.43l.8-.41c.22-.11.39-.2.6-.29h0c-.19-.09-.38-.19-.6-.3l-.8-.42v-.43l1.66.97h1.23v.38Z"/>
          <path class="cls-1" d="M147.51,34.85h1.21v-1.4h-1.21v-.38h2.89v.38h-1.36v1.4h1.36v.37h-2.89v-.37Z"/>
          <path class="cls-1" d="M147.51,32.06h1.71c.65,0,.92-.29.92-.68,0-.43-.28-.7-.92-.7h-1.71v-.38h1.69c.89,0,1.25.47,1.25,1.09,0,.59-.34,1.04-1.24,1.04h-1.7v-.38Z"/>
          <path class="cls-1" d="M147.54,29.66c-.03-.16-.06-.42-.06-.68,0-.37.06-.61.21-.79.11-.15.28-.24.51-.24.28,0,.52.18.64.49h0c.07-.27.3-.6.73-.6.25,0,.44.1.58.25.18.2.27.53.27,1,0,.26-.02.45-.03.58h-2.85ZM148.73,29.28v-.34c0-.39-.21-.63-.48-.63-.34,0-.47.26-.47.64,0,.17.01.27.03.33h.93ZM150.12,29.28c.01-.07.02-.18.02-.31,0-.39-.14-.74-.56-.74-.39,0-.56.34-.56.75v.31h1.1Z"/>
          <path class="cls-1" d="M147.54,26.43c-.03-.23-.06-.5-.06-.79,0-.54.12-.92.36-1.17.24-.26.57-.41,1.04-.41s.86.15,1.13.42c.27.27.42.72.42,1.28,0,.27-.01.49-.03.68h-2.85ZM150.1,26.05c.02-.09.02-.23.02-.38,0-.8-.45-1.23-1.23-1.23-.68,0-1.12.38-1.12,1.17,0,.19.02.34.04.44h2.28Z"/>
          <path class="cls-1" d="M147.51,23.2h1.71c.65,0,.92-.29.92-.67,0-.43-.28-.7-.92-.7h-1.71v-.38h1.69c.89,0,1.25.47,1.25,1.09,0,.59-.34,1.04-1.24,1.04h-1.7v-.38Z"/>
          <path class="cls-1" d="M147.54,20.8c-.03-.16-.06-.42-.06-.68,0-.37.06-.61.21-.79.11-.15.28-.24.51-.24.28,0,.52.18.64.49h0c.07-.27.3-.6.73-.6.25,0,.44.1.58.24.18.2.27.53.27,1,0,.26-.02.45-.03.58h-2.85ZM148.73,20.43v-.34c0-.39-.21-.63-.48-.63-.34,0-.47.26-.47.64,0,.17.01.27.03.33h.93ZM150.12,20.43c.01-.07.02-.18.02-.31,0-.39-.14-.74-.56-.74-.39,0-.56.34-.56.75v.31h1.1Z"/>
          <path class="cls-1" d="M149.49,18.09l.91.3v.39l-2.89-.98v-.45l2.89-.99v.4l-.91.31v1.03ZM149.2,17.14l-.83.28c-.19.06-.36.11-.53.15h0c.17.05.35.1.52.15l.84.28v-.87Z"/>
          <path class="cls-1" d="M147.51,15.57h2.89v.37h-2.89v-.37Z"/>
        </g>
      </g>
      <g>
        <g>
          <path class="cls-1" d="M131.9,86.6h1.21v-1.4h-1.21v-.38h2.89v.38h-1.36v1.4h1.36v.37h-2.89v-.37Z"/>
          <path class="cls-1" d="M133.32,81.71c1,0,1.52.61,1.52,1.34s-.59,1.3-1.47,1.3c-.92,0-1.52-.57-1.52-1.34s.61-1.3,1.46-1.3ZM133.36,83.95c.62,0,1.17-.34,1.17-.92s-.55-.93-1.2-.93c-.58,0-1.18.3-1.18.92s.57.93,1.21.93Z"/>
          <path class="cls-1" d="M131.94,81.23c-.03-.16-.06-.42-.06-.68,0-.37.06-.61.21-.79.11-.15.28-.24.51-.24.28,0,.52.18.64.49h0c.07-.27.3-.6.73-.6.25,0,.44.1.58.25.18.2.27.53.27,1,0,.26-.02.45-.03.58h-2.85ZM133.12,80.85v-.34c0-.4-.21-.63-.48-.63-.34,0-.47.26-.47.64,0,.17.01.27.03.33h.93ZM134.51,80.85c.01-.07.02-.18.02-.31,0-.39-.14-.74-.56-.74-.39,0-.56.34-.56.75v.31h1.1Z"/>
          <path class="cls-1" d="M131.94,78.91c-.03-.16-.06-.42-.06-.68,0-.37.06-.61.21-.79.11-.15.28-.24.51-.24.28,0,.52.18.64.49h0c.07-.27.3-.6.73-.6.25,0,.44.1.58.25.18.2.27.53.27,1,0,.26-.02.45-.03.58h-2.85ZM133.12,78.53v-.34c0-.4-.21-.63-.48-.63-.34,0-.47.26-.47.64,0,.17.01.27.03.33h.93ZM134.51,78.53c.01-.07.02-.18.02-.31,0-.39-.14-.74-.56-.74-.39,0-.56.34-.56.75v.31h1.1Z"/>
          <path class="cls-1" d="M134.79,76.19h-1.23l-1.67.91v-.43l.8-.41c.22-.11.39-.2.6-.29h0c-.19-.09-.38-.19-.6-.3l-.8-.42v-.43l1.66.97h1.23v.38Z"/>
          <path class="cls-1" d="M131.9,73.24h1.21v-1.4h-1.21v-.38h2.89v.38h-1.36v1.4h1.36v.37h-2.89v-.37Z"/>
          <path class="cls-1" d="M131.9,70.45h1.71c.65,0,.92-.29.92-.68,0-.43-.28-.7-.92-.7h-1.71v-.38h1.69c.89,0,1.25.47,1.25,1.09,0,.59-.34,1.04-1.24,1.04h-1.7v-.38Z"/>
          <path class="cls-1" d="M131.94,68.05c-.03-.16-.06-.42-.06-.68,0-.37.06-.61.21-.79.11-.15.28-.24.51-.24.28,0,.52.18.64.49h0c.07-.27.3-.6.73-.6.25,0,.44.1.58.25.18.2.27.53.27,1,0,.26-.02.45-.03.58h-2.85ZM133.12,67.67v-.34c0-.39-.21-.63-.48-.63-.34,0-.47.26-.47.64,0,.17.01.27.03.33h.93ZM134.51,67.67c.01-.07.02-.18.02-.31,0-.39-.14-.74-.56-.74-.39,0-.56.34-.56.75v.31h1.1Z"/>
          <path class="cls-1" d="M131.94,64.82c-.03-.23-.06-.5-.06-.79,0-.54.12-.92.36-1.17.24-.26.57-.41,1.04-.41s.86.15,1.13.42c.27.27.42.72.42,1.28,0,.27-.01.49-.03.68h-2.85ZM134.5,64.44c.02-.09.02-.23.02-.38,0-.8-.45-1.23-1.23-1.23-.68,0-1.12.38-1.12,1.17,0,.19.02.34.04.44h2.28Z"/>
          <path class="cls-1" d="M131.9,61.59h1.71c.65,0,.92-.29.92-.67,0-.43-.28-.7-.92-.7h-1.71v-.38h1.69c.89,0,1.25.47,1.25,1.09,0,.59-.34,1.04-1.24,1.04h-1.7v-.38Z"/>
          <path class="cls-1" d="M131.94,59.19c-.03-.16-.06-.42-.06-.68,0-.37.06-.61.21-.79.11-.15.28-.24.51-.24.28,0,.52.18.64.49h0c.07-.27.3-.6.73-.6.25,0,.44.1.58.24.18.2.27.53.27,1,0,.26-.02.45-.03.58h-2.85ZM133.12,58.82v-.34c0-.39-.21-.63-.48-.63-.34,0-.47.26-.47.64,0,.17.01.27.03.33h.93ZM134.51,58.82c.01-.07.02-.18.02-.31,0-.39-.14-.74-.56-.74-.39,0-.56.34-.56.75v.31h1.1Z"/>
          <path class="cls-1" d="M133.88,56.48l.91.3v.39l-2.89-.98v-.45l2.89-.99v.4l-.91.31v1.03ZM133.59,55.53l-.83.28c-.19.06-.36.11-.53.15h0c.17.05.35.1.52.15l.84.28v-.87Z"/>
          <path class="cls-1" d="M131.9,53.96h2.89v.37h-2.89v-.37Z"/>
        </g>
        <g>
          <path class="cls-1" d="M131.9,48.21h1.21v-1.4h-1.21v-.38h2.89v.38h-1.36v1.4h1.36v.37h-2.89v-.37Z"/>
          <path class="cls-1" d="M133.32,43.32c1,0,1.52.61,1.52,1.34s-.59,1.3-1.47,1.3c-.92,0-1.52-.57-1.52-1.34s.61-1.3,1.46-1.3ZM133.36,45.56c.62,0,1.17-.34,1.17-.92s-.55-.93-1.2-.93c-.58,0-1.18.3-1.18.92s.57.93,1.21.93Z"/>
          <path class="cls-1" d="M131.94,42.84c-.03-.16-.06-.42-.06-.68,0-.37.06-.61.21-.79.11-.15.28-.24.51-.24.28,0,.52.18.64.49h0c.07-.27.3-.6.73-.6.25,0,.44.1.58.25.18.2.27.53.27,1,0,.26-.02.45-.03.58h-2.85ZM133.12,42.46v-.34c0-.4-.21-.63-.48-.63-.34,0-.47.26-.47.64,0,.17.01.27.03.33h.93ZM134.51,42.46c.01-.07.02-.18.02-.31,0-.39-.14-.74-.56-.74-.39,0-.56.34-.56.75v.31h1.1Z"/>
          <path class="cls-1" d="M131.94,40.52c-.03-.16-.06-.42-.06-.68,0-.37.06-.61.21-.79.11-.15.28-.24.51-.24.28,0,.52.18.64.49h0c.07-.27.3-.6.73-.6.25,0,.44.1.58.25.18.2.27.53.27,1,0,.26-.02.45-.03.58h-2.85ZM133.12,40.14v-.34c0-.4-.21-.63-.48-.63-.34,0-.47.26-.47.64,0,.17.01.27.03.33h.93ZM134.51,40.14c.01-.07.02-.18.02-.31,0-.39-.14-.74-.56-.74-.39,0-.56.34-.56.75v.31h1.1Z"/>
          <path class="cls-1" d="M134.79,37.8h-1.23l-1.67.91v-.43l.8-.41c.22-.11.39-.2.6-.29h0c-.19-.09-.38-.19-.6-.3l-.8-.42v-.43l1.66.97h1.23v.38Z"/>
          <path class="cls-1" d="M131.9,34.85h1.21v-1.4h-1.21v-.38h2.89v.38h-1.36v1.4h1.36v.37h-2.89v-.37Z"/>
          <path class="cls-1" d="M131.9,32.06h1.71c.65,0,.92-.29.92-.68,0-.43-.28-.7-.92-.7h-1.71v-.38h1.69c.89,0,1.25.47,1.25,1.09,0,.59-.34,1.04-1.24,1.04h-1.7v-.38Z"/>
          <path class="cls-1" d="M131.94,29.66c-.03-.16-.06-.42-.06-.68,0-.37.06-.61.21-.79.11-.15.28-.24.51-.24.28,0,.52.18.64.49h0c.07-.27.3-.6.73-.6.25,0,.44.1.58.25.18.2.27.53.27,1,0,.26-.02.45-.03.58h-2.85ZM133.12,29.28v-.34c0-.39-.21-.63-.48-.63-.34,0-.47.26-.47.64,0,.17.01.27.03.33h.93ZM134.51,29.28c.01-.07.02-.18.02-.31,0-.39-.14-.74-.56-.74-.39,0-.56.34-.56.75v.31h1.1Z"/>
          <path class="cls-1" d="M131.94,26.43c-.03-.23-.06-.5-.06-.79,0-.54.12-.92.36-1.17.24-.26.57-.41,1.04-.41s.86.15,1.13.42c.27.27.42.72.42,1.28,0,.27-.01.49-.03.68h-2.85ZM134.5,26.05c.02-.09.02-.23.02-.38,0-.8-.45-1.23-1.23-1.23-.68,0-1.12.38-1.12,1.17,0,.19.02.34.04.44h2.28Z"/>
          <path class="cls-1" d="M131.9,23.2h1.71c.65,0,.92-.29.92-.67,0-.43-.28-.7-.92-.7h-1.71v-.38h1.69c.89,0,1.25.47,1.25,1.09,0,.59-.34,1.04-1.24,1.04h-1.7v-.38Z"/>
          <path class="cls-1" d="M131.94,20.8c-.03-.16-.06-.42-.06-.68,0-.37.06-.61.21-.79.11-.15.28-.24.51-.24.28,0,.52.18.64.49h0c.07-.27.3-.6.73-.6.25,0,.44.1.58.24.18.2.27.53.27,1,0,.26-.02.45-.03.58h-2.85ZM133.12,20.43v-.34c0-.39-.21-.63-.48-.63-.34,0-.47.26-.47.64,0,.17.01.27.03.33h.93ZM134.51,20.43c.01-.07.02-.18.02-.31,0-.39-.14-.74-.56-.74-.39,0-.56.34-.56.75v.31h1.1Z"/>
          <path class="cls-1" d="M133.88,18.09l.91.3v.39l-2.89-.98v-.45l2.89-.99v.4l-.91.31v1.03ZM133.59,17.14l-.83.28c-.19.06-.36.11-.53.15h0c.17.05.35.1.52.15l.84.28v-.87Z"/>
          <path class="cls-1" d="M131.9,15.57h2.89v.37h-2.89v-.37Z"/>
        </g>
      </g>
      <g>
        <g>
          <path class="cls-1" d="M89.69,86.6h1.21v-1.4h-1.21v-.38h2.89v.38h-1.36v1.4h1.36v.37h-2.89v-.37Z"/>
          <path class="cls-1" d="M91.11,81.71c1,0,1.52.61,1.52,1.34s-.59,1.3-1.47,1.3c-.92,0-1.52-.57-1.52-1.34s.61-1.3,1.46-1.3ZM91.16,83.95c.62,0,1.17-.34,1.17-.92s-.55-.93-1.2-.93c-.58,0-1.18.3-1.18.92s.57.93,1.21.93Z"/>
          <path class="cls-1" d="M89.73,81.23c-.03-.16-.06-.42-.06-.68,0-.37.06-.61.21-.79.11-.15.28-.24.51-.24.28,0,.52.18.64.49h0c.07-.27.3-.6.73-.6.25,0,.44.1.58.25.18.2.27.53.27,1,0,.26-.02.45-.03.58h-2.85ZM90.91,80.85v-.34c0-.4-.21-.63-.48-.63-.34,0-.47.26-.47.64,0,.17.01.27.03.33h.93ZM92.3,80.85c.01-.07.02-.18.02-.31,0-.39-.14-.74-.56-.74-.39,0-.56.34-.56.75v.31h1.1Z"/>
          <path class="cls-1" d="M89.73,78.91c-.03-.16-.06-.42-.06-.68,0-.37.06-.61.21-.79.11-.15.28-.24.51-.24.28,0,.52.18.64.49h0c.07-.27.3-.6.73-.6.25,0,.44.1.58.25.18.2.27.53.27,1,0,.26-.02.45-.03.58h-2.85ZM90.91,78.53v-.34c0-.4-.21-.63-.48-.63-.34,0-.47.26-.47.64,0,.17.01.27.03.33h.93ZM92.3,78.53c.01-.07.02-.18.02-.31,0-.39-.14-.74-.56-.74-.39,0-.56.34-.56.75v.31h1.1Z"/>
          <path class="cls-1" d="M92.59,76.19h-1.23l-1.67.91v-.43l.8-.41c.22-.11.39-.2.6-.29h0c-.19-.09-.38-.19-.6-.3l-.8-.42v-.43l1.66.97h1.23v.38Z"/>
          <path class="cls-1" d="M89.69,73.24h1.21v-1.4h-1.21v-.38h2.89v.38h-1.36v1.4h1.36v.37h-2.89v-.37Z"/>
          <path class="cls-1" d="M89.69,70.45h1.71c.65,0,.92-.29.92-.68,0-.43-.28-.7-.92-.7h-1.71v-.38h1.69c.89,0,1.25.47,1.25,1.09,0,.59-.34,1.04-1.24,1.04h-1.7v-.38Z"/>
          <path class="cls-1" d="M89.73,68.05c-.03-.16-.06-.42-.06-.68,0-.37.06-.61.21-.79.11-.15.28-.24.51-.24.28,0,.52.18.64.49h0c.07-.27.3-.6.73-.6.25,0,.44.1.58.25.18.2.27.53.27,1,0,.26-.02.45-.03.58h-2.85ZM90.91,67.67v-.34c0-.39-.21-.63-.48-.63-.34,0-.47.26-.47.64,0,.17.01.27.03.33h.93ZM92.3,67.67c.01-.07.02-.18.02-.31,0-.39-.14-.74-.56-.74-.39,0-.56.34-.56.75v.31h1.1Z"/>
          <path class="cls-1" d="M89.73,64.82c-.03-.23-.06-.5-.06-.79,0-.54.12-.92.36-1.17.24-.26.57-.41,1.04-.41s.86.15,1.13.42c.27.27.42.72.42,1.28,0,.27-.01.49-.03.68h-2.85ZM92.29,64.44c.02-.09.02-.23.02-.38,0-.8-.45-1.23-1.23-1.23-.68,0-1.12.38-1.12,1.17,0,.19.02.34.04.44h2.28Z"/>
          <path class="cls-1" d="M89.69,61.59h1.71c.65,0,.92-.29.92-.67,0-.43-.28-.7-.92-.7h-1.71v-.38h1.69c.89,0,1.25.47,1.25,1.09,0,.59-.34,1.04-1.24,1.04h-1.7v-.38Z"/>
          <path class="cls-1" d="M89.73,59.19c-.03-.16-.06-.42-.06-.68,0-.37.06-.61.21-.79.11-.15.28-.24.51-.24.28,0,.52.18.64.49h0c.07-.27.3-.6.73-.6.25,0,.44.1.58.24.18.2.27.53.27,1,0,.26-.02.45-.03.58h-2.85ZM90.91,58.82v-.34c0-.39-.21-.63-.48-.63-.34,0-.47.26-.47.64,0,.17.01.27.03.33h.93ZM92.3,58.82c.01-.07.02-.18.02-.31,0-.39-.14-.74-.56-.74-.39,0-.56.34-.56.75v.31h1.1Z"/>
          <path class="cls-1" d="M91.68,56.48l.91.3v.39l-2.89-.98v-.45l2.89-.99v.4l-.91.31v1.03ZM91.38,55.53l-.83.28c-.19.06-.36.11-.53.15h0c.17.05.35.1.52.15l.84.28v-.87Z"/>
          <path class="cls-1" d="M89.69,53.96h2.89v.37h-2.89v-.37Z"/>
        </g>
        <g>
          <path class="cls-1" d="M89.69,48.21h1.21v-1.4h-1.21v-.38h2.89v.38h-1.36v1.4h1.36v.37h-2.89v-.37Z"/>
          <path class="cls-1" d="M91.11,43.32c1,0,1.52.61,1.52,1.34s-.59,1.3-1.47,1.3c-.92,0-1.52-.57-1.52-1.34s.61-1.3,1.46-1.3ZM91.16,45.56c.62,0,1.17-.34,1.17-.92s-.55-.93-1.2-.93c-.58,0-1.18.3-1.18.92s.57.93,1.21.93Z"/>
          <path class="cls-1" d="M89.73,42.84c-.03-.16-.06-.42-.06-.68,0-.37.06-.61.21-.79.11-.15.28-.24.51-.24.28,0,.52.18.64.49h0c.07-.27.3-.6.73-.6.25,0,.44.1.58.25.18.2.27.53.27,1,0,.26-.02.45-.03.58h-2.85ZM90.91,42.46v-.34c0-.4-.21-.63-.48-.63-.34,0-.47.26-.47.64,0,.17.01.27.03.33h.93ZM92.3,42.46c.01-.07.02-.18.02-.31,0-.39-.14-.74-.56-.74-.39,0-.56.34-.56.75v.31h1.1Z"/>
          <path class="cls-1" d="M89.73,40.52c-.03-.16-.06-.42-.06-.68,0-.37.06-.61.21-.79.11-.15.28-.24.51-.24.28,0,.52.18.64.49h0c.07-.27.3-.6.73-.6.25,0,.44.1.58.25.18.2.27.53.27,1,0,.26-.02.45-.03.58h-2.85ZM90.91,40.14v-.34c0-.4-.21-.63-.48-.63-.34,0-.47.26-.47.64,0,.17.01.27.03.33h.93ZM92.3,40.14c.01-.07.02-.18.02-.31,0-.39-.14-.74-.56-.74-.39,0-.56.34-.56.75v.31h1.1Z"/>
          <path class="cls-1" d="M92.59,37.8h-1.23l-1.67.91v-.43l.8-.41c.22-.11.39-.2.6-.29h0c-.19-.09-.38-.19-.6-.3l-.8-.42v-.43l1.66.97h1.23v.38Z"/>
          <path class="cls-1" d="M89.69,34.85h1.21v-1.4h-1.21v-.38h2.89v.38h-1.36v1.4h1.36v.37h-2.89v-.37Z"/>
          <path class="cls-1" d="M89.69,32.06h1.71c.65,0,.92-.29.92-.68,0-.43-.28-.7-.92-.7h-1.71v-.38h1.69c.89,0,1.25.47,1.25,1.09,0,.59-.34,1.04-1.24,1.04h-1.7v-.38Z"/>
          <path class="cls-1" d="M89.73,29.66c-.03-.16-.06-.42-.06-.68,0-.37.06-.61.21-.79.11-.15.28-.24.51-.24.28,0,.52.18.64.49h0c.07-.27.3-.6.73-.6.25,0,.44.1.58.25.18.2.27.53.27,1,0,.26-.02.45-.03.58h-2.85ZM90.91,29.28v-.34c0-.39-.21-.63-.48-.63-.34,0-.47.26-.47.64,0,.17.01.27.03.33h.93ZM92.3,29.28c.01-.07.02-.18.02-.31,0-.39-.14-.74-.56-.74-.39,0-.56.34-.56.75v.31h1.1Z"/>
          <path class="cls-1" d="M89.73,26.43c-.03-.23-.06-.5-.06-.79,0-.54.12-.92.36-1.17.24-.26.57-.41,1.04-.41s.86.15,1.13.42c.27.27.42.72.42,1.28,0,.27-.01.49-.03.68h-2.85ZM92.29,26.05c.02-.09.02-.23.02-.38,0-.8-.45-1.23-1.23-1.23-.68,0-1.12.38-1.12,1.17,0,.19.02.34.04.44h2.28Z"/>
          <path class="cls-1" d="M89.69,23.2h1.71c.65,0,.92-.29.92-.67,0-.43-.28-.7-.92-.7h-1.71v-.38h1.69c.89,0,1.25.47,1.25,1.09,0,.59-.34,1.04-1.24,1.04h-1.7v-.38Z"/>
          <path class="cls-1" d="M89.73,20.8c-.03-.16-.06-.42-.06-.68,0-.37.06-.61.21-.79.11-.15.28-.24.51-.24.28,0,.52.18.64.49h0c.07-.27.3-.6.73-.6.25,0,.44.1.58.24.18.2.27.53.27,1,0,.26-.02.45-.03.58h-2.85ZM90.91,20.43v-.34c0-.39-.21-.63-.48-.63-.34,0-.47.26-.47.64,0,.17.01.27.03.33h.93ZM92.3,20.43c.01-.07.02-.18.02-.31,0-.39-.14-.74-.56-.74-.39,0-.56.34-.56.75v.31h1.1Z"/>
          <path class="cls-1" d="M91.68,18.09l.91.3v.39l-2.89-.98v-.45l2.89-.99v.4l-.91.31v1.03ZM91.38,17.14l-.83.28c-.19.06-.36.11-.53.15h0c.17.05.35.1.52.15l.84.28v-.87Z"/>
          <path class="cls-1" d="M89.69,15.57h2.89v.37h-2.89v-.37Z"/>
        </g>
      </g>
      <g>
        <g>
          <path class="cls-1" d="M73.75,86.6h1.21v-1.4h-1.21v-.38h2.89v.38h-1.36v1.4h1.36v.37h-2.89v-.37Z"/>
          <path class="cls-1" d="M75.17,81.71c1,0,1.52.61,1.52,1.34s-.59,1.3-1.47,1.3c-.92,0-1.52-.57-1.52-1.34s.61-1.3,1.46-1.3ZM75.21,83.95c.62,0,1.17-.34,1.17-.92s-.55-.93-1.2-.93c-.58,0-1.18.3-1.18.92s.57.93,1.21.93Z"/>
          <path class="cls-1" d="M73.79,81.23c-.03-.16-.06-.42-.06-.68,0-.37.06-.61.21-.79.11-.15.28-.24.51-.24.28,0,.52.18.64.49h0c.07-.27.3-.6.73-.6.25,0,.44.1.58.25.18.2.27.53.27,1,0,.26-.02.45-.03.58h-2.85ZM74.97,80.85v-.34c0-.4-.21-.63-.48-.63-.34,0-.47.26-.47.64,0,.17.01.27.03.33h.93ZM76.36,80.85c.01-.07.02-.18.02-.31,0-.39-.14-.74-.56-.74-.39,0-.56.34-.56.75v.31h1.1Z"/>
          <path class="cls-1" d="M73.79,78.91c-.03-.16-.06-.42-.06-.68,0-.37.06-.61.21-.79.11-.15.28-.24.51-.24.28,0,.52.18.64.49h0c.07-.27.3-.6.73-.6.25,0,.44.1.58.25.18.2.27.53.27,1,0,.26-.02.45-.03.58h-2.85ZM74.97,78.53v-.34c0-.4-.21-.63-.48-.63-.34,0-.47.26-.47.64,0,.17.01.27.03.33h.93ZM76.36,78.53c.01-.07.02-.18.02-.31,0-.39-.14-.74-.56-.74-.39,0-.56.34-.56.75v.31h1.1Z"/>
          <path class="cls-1" d="M76.64,76.19h-1.23l-1.67.91v-.43l.8-.41c.22-.11.39-.2.6-.29h0c-.19-.09-.38-.19-.6-.3l-.8-.42v-.43l1.66.97h1.23v.38Z"/>
          <path class="cls-1" d="M73.75,73.24h1.21v-1.4h-1.21v-.38h2.89v.38h-1.36v1.4h1.36v.37h-2.89v-.37Z"/>
          <path class="cls-1" d="M73.75,70.45h1.71c.65,0,.92-.29.92-.68,0-.43-.28-.7-.92-.7h-1.71v-.38h1.69c.89,0,1.25.47,1.25,1.09,0,.59-.34,1.04-1.24,1.04h-1.7v-.38Z"/>
          <path class="cls-1" d="M73.79,68.05c-.03-.16-.06-.42-.06-.68,0-.37.06-.61.21-.79.11-.15.28-.24.51-.24.28,0,.52.18.64.49h0c.07-.27.3-.6.73-.6.25,0,.44.1.58.25.18.2.27.53.27,1,0,.26-.02.45-.03.58h-2.85ZM74.97,67.67v-.34c0-.39-.21-.63-.48-.63-.34,0-.47.26-.47.64,0,.17.01.27.03.33h.93ZM76.36,67.67c.01-.07.02-.18.02-.31,0-.39-.14-.74-.56-.74-.39,0-.56.34-.56.75v.31h1.1Z"/>
          <path class="cls-1" d="M73.79,64.82c-.03-.23-.06-.5-.06-.79,0-.54.12-.92.36-1.17.24-.26.57-.41,1.04-.41s.86.15,1.13.42c.27.27.42.72.42,1.28,0,.27-.01.49-.03.68h-2.85ZM76.35,64.44c.02-.09.02-.23.02-.38,0-.8-.45-1.23-1.23-1.23-.68,0-1.12.38-1.12,1.17,0,.19.02.34.04.44h2.28Z"/>
          <path class="cls-1" d="M73.75,61.59h1.71c.65,0,.92-.29.92-.67,0-.43-.28-.7-.92-.7h-1.71v-.38h1.69c.89,0,1.25.47,1.25,1.09,0,.59-.34,1.04-1.24,1.04h-1.7v-.38Z"/>
          <path class="cls-1" d="M73.79,59.19c-.03-.16-.06-.42-.06-.68,0-.37.06-.61.21-.79.11-.15.28-.24.51-.24.28,0,.52.18.64.49h0c.07-.27.3-.6.73-.6.25,0,.44.1.58.24.18.2.27.53.27,1,0,.26-.02.45-.03.58h-2.85ZM74.97,58.82v-.34c0-.39-.21-.63-.48-.63-.34,0-.47.26-.47.64,0,.17.01.27.03.33h.93ZM76.36,58.82c.01-.07.02-.18.02-.31,0-.39-.14-.74-.56-.74-.39,0-.56.34-.56.75v.31h1.1Z"/>
          <path class="cls-1" d="M75.73,56.48l.91.3v.39l-2.89-.98v-.45l2.89-.99v.4l-.91.31v1.03ZM75.44,55.53l-.83.28c-.19.06-.36.11-.53.15h0c.17.05.35.1.52.15l.84.28v-.87Z"/>
          <path class="cls-1" d="M73.75,53.96h2.89v.37h-2.89v-.37Z"/>
        </g>
        <g>
          <path class="cls-1" d="M73.75,48.21h1.21v-1.4h-1.21v-.38h2.89v.38h-1.36v1.4h1.36v.37h-2.89v-.37Z"/>
          <path class="cls-1" d="M75.17,43.32c1,0,1.52.61,1.52,1.34s-.59,1.3-1.47,1.3c-.92,0-1.52-.57-1.52-1.34s.61-1.3,1.46-1.3ZM75.21,45.56c.62,0,1.17-.34,1.17-.92s-.55-.93-1.2-.93c-.58,0-1.18.3-1.18.92s.57.93,1.21.93Z"/>
          <path class="cls-1" d="M73.79,42.84c-.03-.16-.06-.42-.06-.68,0-.37.06-.61.21-.79.11-.15.28-.24.51-.24.28,0,.52.18.64.49h0c.07-.27.3-.6.73-.6.25,0,.44.1.58.25.18.2.27.53.27,1,0,.26-.02.45-.03.58h-2.85ZM74.97,42.46v-.34c0-.4-.21-.63-.48-.63-.34,0-.47.26-.47.64,0,.17.01.27.03.33h.93ZM76.36,42.46c.01-.07.02-.18.02-.31,0-.39-.14-.74-.56-.74-.39,0-.56.34-.56.75v.31h1.1Z"/>
          <path class="cls-1" d="M73.79,40.52c-.03-.16-.06-.42-.06-.68,0-.37.06-.61.21-.79.11-.15.28-.24.51-.24.28,0,.52.18.64.49h0c.07-.27.3-.6.73-.6.25,0,.44.1.58.25.18.2.27.53.27,1,0,.26-.02.45-.03.58h-2.85ZM74.97,40.14v-.34c0-.4-.21-.63-.48-.63-.34,0-.47.26-.47.64,0,.17.01.27.03.33h.93ZM76.36,40.14c.01-.07.02-.18.02-.31,0-.39-.14-.74-.56-.74-.39,0-.56.34-.56.75v.31h1.1Z"/>
          <path class="cls-1" d="M76.64,37.8h-1.23l-1.67.91v-.43l.8-.41c.22-.11.39-.2.6-.29h0c-.19-.09-.38-.19-.6-.3l-.8-.42v-.43l1.66.97h1.23v.38Z"/>
          <path class="cls-1" d="M73.75,34.85h1.21v-1.4h-1.21v-.38h2.89v.38h-1.36v1.4h1.36v.37h-2.89v-.37Z"/>
          <path class="cls-1" d="M73.75,32.06h1.71c.65,0,.92-.29.92-.68,0-.43-.28-.7-.92-.7h-1.71v-.38h1.69c.89,0,1.25.47,1.25,1.09,0,.59-.34,1.04-1.24,1.04h-1.7v-.38Z"/>
          <path class="cls-1" d="M73.79,29.66c-.03-.16-.06-.42-.06-.68,0-.37.06-.61.21-.79.11-.15.28-.24.51-.24.28,0,.52.18.64.49h0c.07-.27.3-.6.73-.6.25,0,.44.1.58.25.18.2.27.53.27,1,0,.26-.02.45-.03.58h-2.85ZM74.97,29.28v-.34c0-.39-.21-.63-.48-.63-.34,0-.47.26-.47.64,0,.17.01.27.03.33h.93ZM76.36,29.28c.01-.07.02-.18.02-.31,0-.39-.14-.74-.56-.74-.39,0-.56.34-.56.75v.31h1.1Z"/>
          <path class="cls-1" d="M73.79,26.43c-.03-.23-.06-.5-.06-.79,0-.54.12-.92.36-1.17.24-.26.57-.41,1.04-.41s.86.15,1.13.42c.27.27.42.72.42,1.28,0,.27-.01.49-.03.68h-2.85ZM76.35,26.05c.02-.09.02-.23.02-.38,0-.8-.45-1.23-1.23-1.23-.68,0-1.12.38-1.12,1.17,0,.19.02.34.04.44h2.28Z"/>
          <path class="cls-1" d="M73.75,23.2h1.71c.65,0,.92-.29.92-.67,0-.43-.28-.7-.92-.7h-1.71v-.38h1.69c.89,0,1.25.47,1.25,1.09,0,.59-.34,1.04-1.24,1.04h-1.7v-.38Z"/>
          <path class="cls-1" d="M73.79,20.8c-.03-.16-.06-.42-.06-.68,0-.37.06-.61.21-.79.11-.15.28-.24.51-.24.28,0,.52.18.64.49h0c.07-.27.3-.6.73-.6.25,0,.44.1.58.24.18.2.27.53.27,1,0,.26-.02.45-.03.58h-2.85ZM74.97,20.43v-.34c0-.39-.21-.63-.48-.63-.34,0-.47.26-.47.64,0,.17.01.27.03.33h.93ZM76.36,20.43c.01-.07.02-.18.02-.31,0-.39-.14-.74-.56-.74-.39,0-.56.34-.56.75v.31h1.1Z"/>
          <path class="cls-1" d="M75.73,18.09l.91.3v.39l-2.89-.98v-.45l2.89-.99v.4l-.91.31v1.03ZM75.44,17.14l-.83.28c-.19.06-.36.11-.53.15h0c.17.05.35.1.52.15l.84.28v-.87Z"/>
          <path class="cls-1" d="M73.75,15.57h2.89v.37h-2.89v-.37Z"/>
        </g>
      </g>
    </g>
    <path class="cls-5" d="M114.56,48.27c-1.7.06-3.03,1.48-2.96,3.19.03.87.42,1.64,1.02,2.17.57.52,1.34.82,2.16.79.75-.03,1.43-.32,1.95-.79.65-.58,1.05-1.44,1.02-2.39-.06-1.7-1.48-3.03-3.19-2.97M114.93,53.49c-1.18.15-2.25-.7-2.4-1.87-.14-1.18.7-2.25,1.87-2.4,1.18-.15,2.25.69,2.4,1.87.14,1.18-.7,2.26-1.87,2.4"/>
    <path class="cls-5" d="M119.68,51.52l-.33-.15-.14-.06c-.11-.05-.2-.18-.21-.3,0,0,0-.06-.02-.2v-.05c-.02-.05.06-.15.16-.22l.12-.08.31-.21c.09-.07.15-.22.12-.33l-.28-.77c-.05-.11-.18-.19-.3-.17l-.37.04-.13.02c-.12.02-.26-.05-.32-.13-.05-.08-.17-.39-.13-.49l.06-.13.16-.33c.05-.11.03-.26-.06-.34l-.63-.53c-.09-.07-.25-.07-.35,0l-.3.22-.11.08c-.09.07-.25.09-.34.04-.09-.04-.35-.25-.35-.36v-.14s-.04-.37-.04-.37c0-.12-.11-.23-.22-.26l-.81-.14c-.12-.02-.26.06-.31.17l-.15.33-.06.13c-.05.11-.18.21-.3.21,0,0-.06,0-.2.02h-.05c-.05.02-.15-.06-.22-.15l-.08-.12-.21-.31c-.07-.09-.22-.15-.33-.11l-.77.28c-.11.05-.19.18-.17.3l.04.36h0s.02.15.02.15c.01.12-.05.26-.13.32-.09.06-.39.18-.49.13l-.13-.06-.33-.16c-.11-.05-.26-.02-.34.06l-.53.63c-.07.1-.07.25,0,.35l.22.3.07.11h.01c.07.11.09.26.04.35-.05.09-.25.35-.37.36h-.14s-.37.04-.37.04c-.12.01-.24.11-.26.23l-.14.81c-.01.12.07.25.17.3l.34.15.13.06c.11.05.2.18.21.3,0,0,0,.06.02.19v.05c.02.05-.06.15-.16.22l-.11.07-.31.21c-.09.07-.15.22-.12.33l.28.77s.05.08.08.1c.06.06.14.08.22.07l.38-.04.13-.02c.12-.02.26.05.32.13.06.08.18.39.13.49l-.06.13-.16.33c-.05.11-.03.26.06.34l.63.53c.09.07.25.07.35,0l.31-.22.11-.08c.09-.07.25-.09.34-.04.09.04.35.25.36.36v.14s.04.37.04.37c0,.12.11.24.23.26l.81.14c.12.02.25-.06.3-.17l.15-.34.06-.13c.05-.11.18-.2.31-.21,0,0,.06,0,.19-.02h.05c.05-.02.15.06.22.15l.07.11.22.32c.06.09.21.15.33.12l.77-.28c.11-.05.19-.18.18-.3l-.04-.38-.02-.13c-.01-.12.05-.26.14-.32.08-.06.38-.18.49-.13l.12.05.34.17c.11.05.26.02.34-.06l.53-.63c.07-.09.07-.25,0-.35l-.22-.31-.05-.07-.03-.04c-.07-.09-.09-.25-.04-.34.04-.09.25-.35.36-.36h.14s.37-.04.37-.04c.12-.01.24-.12.26-.23l.14-.81c.02-.12-.06-.26-.17-.31M114.79,54.86c-1.11.04-2.11-.44-2.78-1.22-.5-.58-.82-1.34-.85-2.16-.07-1.93,1.45-3.56,3.39-3.63,1.93-.06,3.56,1.45,3.63,3.39.03.92-.29,1.76-.86,2.41-.61.72-1.51,1.18-2.53,1.22"/>
    <path class="cls-5" d="M108.5,42.84c-1.18.04-2.11,1.04-2.06,2.22.01.31.08.59.21.85.35.74,1.13,1.25,2,1.22.22-.01.43-.05.63-.12.34-.12.64-.32.88-.58.14-.15.25-.32.34-.51.15-.3.23-.64.22-1-.04-1.18-1.04-2.1-2.22-2.06M108.76,46.46c-.54.07-1.05-.16-1.36-.56-.17-.21-.27-.46-.31-.74-.1-.82.48-1.57,1.31-1.67.82-.11,1.56.48,1.66,1.3.05.41-.07.81-.31,1.11-.23.3-.58.51-.99.56"/>
    <path class="cls-5" d="M112.06,45.1l-.22-.09-.09-.04h-.02c-.07-.05-.14-.14-.14-.22,0,0,0-.04-.02-.14v-.04s.04-.1.11-.15h.02s.28-.2.28-.2c.07-.05.11-.15.08-.23l-.19-.54c-.04-.08-.13-.13-.21-.12l-.33.04h-.02c-.08.01-.18-.04-.22-.09-.04-.06-.13-.27-.09-.34v-.02s.16-.3.16-.3c.03-.07.02-.18-.05-.24l-.44-.36c-.07-.05-.18-.05-.24,0l-.28.19h-.01c-.07.06-.17.07-.24.04s-.24-.17-.25-.25v-.02l-.03-.33c0-.08-.08-.17-.16-.18l-.56-.1c-.08,0-.17.05-.21.12l-.13.31v.02c-.04.07-.14.14-.22.14,0,0-.04,0-.14.02h-.03s-.11-.04-.15-.11v-.02s-.2-.28-.2-.28c-.04-.06-.15-.1-.23-.08l-.54.2c-.07.03-.13.13-.12.21l.04.33v.02c.01.08-.03.18-.09.22-.06.04-.27.13-.35.09h-.02s-.29-.15-.29-.15c-.07-.04-.18-.02-.24.04l-.37.44c-.05.06-.05.17,0,.24l.2.27v.02c.06.07.07.17.04.24-.03.06-.17.24-.25.25h-.02l-.33.03c-.08,0-.16.08-.18.16l-.09.56c-.01.08.04.18.12.21l.3.13h.02c.08.05.14.14.14.22,0,0,0,.04.02.14v.04s-.04.1-.11.15l-.02.02-.27.18c-.05.04-.08.11-.09.17,0,.02,0,.04,0,.06l.2.54c.03.08.13.13.21.13l.33-.04h.02c.08,0,.18.04.22.09.04.06.12.27.08.34v.02s-.15.31-.15.31c-.04.07-.02.18.05.24l.44.36c.07.05.17.05.24,0l.27-.2h.01c.07-.06.17-.07.24-.04.06.03.24.17.25.25v.02l.03.34c.01.08.08.17.16.18l.56.1c.08,0,.18-.05.21-.12l.14-.31v-.02c.04-.07.14-.14.22-.14,0,0,.04,0,.14-.02h.04s.1.04.15.11v.02s.2.28.2.28c.03.04.07.07.13.08.04.01.07.01.11,0l.53-.2c.08-.03.13-.13.13-.21l-.04-.33v-.02c0-.08.04-.18.09-.22.06-.04.27-.13.34-.09h.02s.3.15.3.15c.07.04.18.02.24-.04l.36-.44c.05-.06.05-.17,0-.24l-.18-.25-.02-.03h-.01c-.05-.08-.06-.18-.03-.25s.17-.24.25-.25h.05l.31-.03c.07,0,.15-.06.17-.13,0-.01.01-.02.01-.03l.09-.56c.01-.08-.04-.18-.12-.21M108.97,47.38c-.11.02-.21.03-.32.04-1.05.04-1.96-.6-2.34-1.52-.11-.26-.17-.54-.18-.84-.05-1.34,1.01-2.47,2.35-2.52,1.34-.05,2.47,1.01,2.52,2.35.01.36-.05.7-.18,1.01-.09.24-.23.46-.39.65-.36.43-.88.74-1.46.83"/>
    <rect x="80.1" y="13.26" width="1.01" height="1.33"/>
    <rect x="81.61" y="13.28" width="5.21" height="1.33"/>
    <rect x="80.1" y="15.76" width="1.01" height="1.33"/>
    <rect x="81.61" y="15.77" width="5.21" height="1.33"/>
    <rect x="80.1" y="18.25" width="1.01" height="1.33"/>
    <rect x="81.61" y="18.27" width="5.21" height="1.33"/>
    <rect x="80.1" y="20.75" width="1.01" height="1.33"/>
    <rect x="81.61" y="20.77" width="5.21" height="1.33"/>
    <rect x="80.1" y="23.25" width="1.01" height="1.33"/>
    <rect x="81.61" y="23.26" width="5.21" height="1.33"/>
    <rect x="80.1" y="25.74" width="1.01" height="1.33"/>
    <rect x="81.61" y="25.76" width="5.21" height="1.33"/>
    <rect x="80.1" y="28.24" width="1.01" height="1.33"/>
    <rect x="81.61" y="28.25" width="5.21" height="1.33"/>
    <rect x="80.1" y="30.73" width="1.01" height="1.33"/>
    <rect x="81.61" y="30.75" width="5.21" height="1.33"/>
    <rect x="80.1" y="33.23" width="1.01" height="1.33"/>
    <rect x="81.61" y="33.24" width="5.21" height="1.33"/>
    <rect x="80.1" y="35.72" width="1.01" height="1.33"/>
    <rect x="81.61" y="35.74" width="5.21" height="1.33"/>
    <rect x="80.1" y="38.22" width="1.01" height="1.33"/>
    <rect x="81.61" y="38.23" width="5.21" height="1.33"/>
    <rect x="80.1" y="40.71" width="1.01" height="1.33"/>
    <rect x="81.61" y="40.73" width="5.21" height="1.33"/>
    <rect x="80.1" y="43.21" width="1.01" height="1.33"/>
    <rect x="81.61" y="43.22" width="5.21" height="1.33"/>
    <rect x="80.1" y="45.7" width="1.01" height="1.33"/>
    <rect x="81.61" y="45.72" width="5.21" height="1.33"/>
    <rect x="80.1" y="48.2" width="1.01" height="1.33"/>
    <rect x="81.61" y="48.21" width="5.21" height="1.33"/>
    <rect x="80.1" y="50.69" width="1.01" height="1.33"/>
    <rect x="81.61" y="50.71" width="5.21" height="1.33"/>
    <rect x="80.1" y="53.19" width="1.01" height="1.33"/>
    <rect x="81.61" y="53.21" width="5.21" height="1.33"/>
    <rect x="80.1" y="55.69" width="1.01" height="1.33"/>
    <rect x="81.61" y="55.7" width="5.21" height="1.33"/>
    <rect x="80.1" y="58.18" width="1.01" height="1.33"/>
    <rect x="81.61" y="58.2" width="5.21" height="1.33"/>
    <rect x="80.1" y="60.68" width="1.01" height="1.33"/>
    <rect x="81.61" y="60.69" width="5.21" height="1.33"/>
    <rect x="80.1" y="63.17" width="1.01" height="1.33"/>
    <rect x="81.61" y="63.19" width="5.21" height="1.33"/>
    <rect x="80.1" y="65.67" width="1.01" height="1.33"/>
    <rect x="81.61" y="65.68" width="5.21" height="1.33"/>
    <rect x="80.1" y="68.16" width="1.01" height="1.33"/>
    <rect x="81.61" y="68.18" width="5.21" height="1.33"/>
    <rect x="80.1" y="70.66" width="1.01" height="1.33"/>
    <rect x="81.61" y="70.67" width="5.21" height="1.33"/>
    <rect x="80.1" y="73.15" width="1.01" height="1.33"/>
    <rect x="81.61" y="73.17" width="5.21" height="1.33"/>
    <rect x="80.1" y="75.65" width="1.01" height="1.33"/>
    <rect x="81.61" y="75.66" width="5.21" height="1.33"/>
    <rect x="80.1" y="78.14" width="1.01" height="1.33"/>
    <rect x="81.61" y="78.16" width="5.21" height="1.33"/>
    <rect x="80.1" y="80.64" width="1.01" height="1.33"/>
    <rect x="81.61" y="80.66" width="5.21" height="1.33"/>
    <rect x="80.1" y="83.14" width="1.01" height="1.33"/>
    <rect x="81.61" y="83.15" width="5.21" height="1.33"/>
    <rect x="80.1" y="85.63" width="1.01" height="1.33"/>
    <rect x="81.61" y="85.65" width="5.21" height="1.33"/>
    <rect x="137.6" y="13.2" width="1.01" height="1.33"/>
    <rect x="139.12" y="13.21" width="5.21" height="1.33"/>
    <rect x="137.6" y="15.69" width="1.01" height="1.33"/>
    <rect x="139.12" y="15.71" width="5.21" height="1.33"/>
    <rect x="137.6" y="18.19" width="1.01" height="1.33"/>
    <rect x="139.12" y="18.2" width="5.21" height="1.33"/>
    <rect x="137.6" y="20.68" width="1.01" height="1.33"/>
    <rect x="139.12" y="20.7" width="5.21" height="1.33"/>
    <rect x="137.6" y="23.18" width="1.01" height="1.33"/>
    <rect x="139.12" y="23.19" width="5.21" height="1.33"/>
    <rect x="137.6" y="25.67" width="1.01" height="1.33"/>
    <rect x="139.12" y="25.69" width="5.21" height="1.33"/>
    <rect x="137.6" y="28.17" width="1.01" height="1.33"/>
    <rect x="139.12" y="28.18" width="5.21" height="1.33"/>
    <rect x="137.6" y="30.66" width="1.01" height="1.33"/>
    <rect x="139.12" y="30.68" width="5.21" height="1.33"/>
    <rect x="137.6" y="33.16" width="1.01" height="1.33"/>
    <rect x="139.12" y="33.18" width="5.21" height="1.33"/>
    <rect x="137.6" y="35.66" width="1.01" height="1.33"/>
    <rect x="139.12" y="35.67" width="5.21" height="1.33"/>
    <rect x="137.6" y="38.15" width="1.01" height="1.33"/>
    <rect x="139.12" y="38.17" width="5.21" height="1.33"/>
    <rect x="137.6" y="40.65" width="1.01" height="1.33"/>
    <rect x="139.12" y="40.66" width="5.21" height="1.33"/>
    <rect x="137.6" y="43.14" width="1.01" height="1.33"/>
    <rect x="139.12" y="43.16" width="5.21" height="1.33"/>
    <rect x="137.6" y="45.64" width="1.01" height="1.33"/>
    <rect x="139.12" y="45.65" width="5.21" height="1.33"/>
    <rect x="137.6" y="48.13" width="1.01" height="1.33"/>
    <rect x="139.12" y="48.15" width="5.21" height="1.33"/>
    <rect x="137.6" y="50.63" width="1.01" height="1.33"/>
    <rect x="139.12" y="50.64" width="5.21" height="1.33"/>
    <rect x="137.6" y="53.12" width="1.01" height="1.33"/>
    <rect x="139.12" y="53.14" width="5.21" height="1.33"/>
    <rect x="137.6" y="55.62" width="1.01" height="1.33"/>
    <rect x="139.12" y="55.63" width="5.21" height="1.33"/>
    <rect x="137.6" y="58.11" width="1.01" height="1.33"/>
    <rect x="139.12" y="58.13" width="5.21" height="1.33"/>
    <rect x="137.6" y="60.61" width="1.01" height="1.33"/>
    <rect x="139.12" y="60.62" width="5.21" height="1.33"/>
    <rect x="137.6" y="63.11" width="1.01" height="1.33"/>
    <rect x="139.12" y="63.12" width="5.21" height="1.33"/>
    <rect x="137.6" y="65.6" width="1.01" height="1.33"/>
    <rect x="139.12" y="65.62" width="5.21" height="1.33"/>
    <rect x="137.6" y="68.1" width="1.01" height="1.33"/>
    <rect x="139.12" y="68.11" width="5.21" height="1.33"/>
    <rect x="137.6" y="70.59" width="1.01" height="1.33"/>
    <rect x="139.12" y="70.61" width="5.21" height="1.33"/>
    <rect x="137.6" y="73.09" width="1.01" height="1.33"/>
    <rect x="139.12" y="73.1" width="5.21" height="1.33"/>
    <rect x="137.6" y="75.58" width="1.01" height="1.33"/>
    <rect x="139.12" y="75.6" width="5.21" height="1.33"/>
    <rect x="137.6" y="78.08" width="1.01" height="1.33"/>
    <rect x="139.12" y="78.09" width="5.21" height="1.33"/>
    <rect x="137.6" y="80.57" width="1.01" height="1.33"/>
    <rect x="139.12" y="80.59" width="5.21" height="1.33"/>
    <rect x="137.6" y="83.07" width="1.01" height="1.33"/>
    <rect x="139.12" y="83.08" width="5.21" height="1.33"/>
    <rect x="137.6" y="85.56" width="1.01" height="1.33"/>
    <rect x="139.12" y="85.58" width="5.21" height="1.33"/>
  </g>
  <g>
    <path class="cls-3" d="M81.49,95.49c0-.47-.38-.85-.85-.85s-.84.38-.84.85v4.84c0,.1-.08.19-.19.19h-5.6c-.1,0-.19-.08-.19-.19v-4.81c0-.47-.38-.85-.85-.85s-.85.38-.85.85v5.85c0,.47.38.85.85.85h.85s6.84-.01,6.84-.01c.47,0,.85-.38.85-.84v-.85h-.02v-5.03Z"/>
    <path class="cls-3" d="M80.57,104.9h-7.59c-.5,0-.91.41-.91.91v.78h.02v8.74c0,.5.41.91.91.91s.91-.41.91-.91v-8.5c0-.14.11-.25.25-.25h5.27c.14,0,.25.11.25.25v8.53c0,.5.41.91.91.91s.91-.41.91-.91v-9.55c0-.5-.41-.91-.91-.91Z"/>
    <path class="cls-3" d="M132.23,95.3c0-.47-.38-.85-.84-.85s-.85.38-.85.85v4.84c0,.1-.08.19-.19.19h-5.6c-.1,0-.19-.08-.19-.19v-4.81c0-.47-.38-.85-.85-.85s-.85.38-.85.85v5.85c0,.47.38.85.85.85h.85s6.84-.01,6.84-.01c.47,0,.85-.38.85-.84v-.85h-.02v-5.03Z"/>
    <path class="cls-3" d="M131.3,104.72h-7.59c-.5,0-.91.41-.91.91v.78h.02v8.74c0,.5.41.91.91.91s.91-.41.91-.91v-8.5c0-.14.11-.25.25-.25h5.27c.14,0,.25.11.25.25v8.53c0,.5.41.91.91.91s.91-.41.91-.91v-9.55c0-.5-.41-.91-.91-.91Z"/>
    <path class="cls-3" d="M91.42,113.81l.04-.07v-16.51l-.04-.07c-.31-.58-.72-1.09-1.2-1.51-.86-.74-1.89-1.13-2.98-1.13s-2.12.39-2.98,1.13c-.48.42-.89.92-1.2,1.5l-.04.07v16.4l.04.07c.31.59.71,1.11,1.2,1.54.87.76,1.91,1.16,3.02,1.16s2.1-.38,2.95-1.1c.48-.41.89-.9,1.2-1.47ZM89.66,113.59c-.63.53-1.5,1.23-2.36,1.23s-1.76-.65-2.49-1.29l-.06-16.2c.74-.62,1.62-1.25,2.46-1.25.88,0,1.67.57,2.39,1.2l.06,16.31Z"/>
    <path class="cls-3" d="M101.28,108.69c0-1.03-.44-2.02-1.2-2.72-.68-.63-1.57-.97-2.5-.97h-2.74s-1.83-.01-1.83-.01v11.28h1.83v-.02h2.74c.14,0,.28,0,.41-.02.79-.09,1.55-.44,2.13-1,.74-.7,1.14-1.65,1.14-2.67v-3.86ZM99.7,109.55v2.1c0,1.51-1.12,2.8-2.61,3.01h-2.24v-8.12h2.21c1.51.19,2.64,1.49,2.64,3.01Z"/>
    <path class="cls-3" d="M109.9,106.06c-.68-.63-1.57-.97-2.5-.97h-4.52v11.23h4.92s.02,0,.02,0c.79-.09,1.55-.44,2.13-1,.74-.7,1.15-1.65,1.15-2.67v-3.86c0-1.03-.44-2.02-1.2-2.72ZM104.66,106.61h1.81c.13,0,.25,0,.38.02,1.52.19,2.66,1.48,2.66,3.01v2.1c0,1.52-1.13,2.81-2.64,3.01-.13.02-.26.03-.4.03h-1.81v-8.17Z"/>
    <path class="cls-3" d="M94.76,102.24h1.58s.06,0,.08,0c.85-.01,1.69-.32,2.34-.87.85-.71,1.34-1.75,1.34-2.86v-.13c0-1.1-.48-2.14-1.32-2.85-.16-.13-.33-.26-.51-.36-.02-.01-.04-.03-.07-.04-.05-.03-.1-.05-.15-.08h-.01s-.04-.02-.05-.03c-.17-.08-.34-.15-.51-.2l-.07-.02c-.06-.02-.11-.03-.17-.04l-.08-.02c-.05-.01-.11-.02-.16-.03-.03,0-.05,0-.08-.01-.03,0-.05,0-.08-.01h-.02s-.05,0-.07,0c-.03,0-.05,0-.1,0-.02,0-.05,0-.07,0-.05,0-.11,0-.16,0-.03,0-.06,0-.09,0h-.56s-.06-.01-.06-.01h-2.78v7.61h1.83v-.02ZM97.7,100.06c-.28.45-.78.74-1.32.74h-1.63v-4.67h1.7c.58,0,1.12.33,1.37.83.22.43.32.89.32,1.38v.12c0,.57-.16,1.12-.45,1.61Z"/>
    <path class="cls-3" d="M151.43,105.69c-.68-.63-1.57-.97-2.5-.97h-4.52v11.23h4.92s.02,0,.02,0c.79-.09,1.55-.44,2.13-1,.74-.7,1.15-1.65,1.15-2.67v-3.86c0-1.03-.44-2.02-1.2-2.72ZM151.05,109.27v2.1c0,1.52-1.13,2.81-2.64,3.01-.13.02-.26.03-.4.03h-1.81v-8.17h1.81c.13,0,.25,0,.38.02,1.52.19,2.66,1.48,2.66,3.01Z"/>
    <path class="cls-3" d="M145.45,101.96h2.24s.06,0,.09,0c.84-.02,1.66-.33,2.31-.87.85-.71,1.34-1.75,1.34-2.86v-.13c0-.82-.27-1.62-.77-2.27h.16l-.69-.58c-.16-.13-.33-.26-.51-.36-.02-.01-.05-.03-.07-.04-.05-.03-.1-.05-.15-.08h-.01s-.04-.02-.05-.03c-.17-.08-.34-.15-.51-.2l-.07-.02c-.06-.02-.11-.03-.17-.04l-.08-.02c-.05-.01-.11-.02-.16-.03-.03,0-.05,0-.08-.01-.02,0-.05,0-.07-.01h-.01s-.05,0-.07,0c-.03,0-.06,0-.09,0-.03,0-.05,0-.08,0-.05,0-.11,0-.16,0-.03,0-.06,0-.09,0h-3.41v7.52h1.17v.06ZM146.1,100.51v-4.67h1.7c.58,0,1.12.33,1.37.83.22.43.32.89.32,1.38v.12c0,.57-.16,1.12-.45,1.61-.28.45-.79.74-1.32.74h-1.63Z"/>
    <path class="cls-3" d="M103.86,102.1h2.24s.06,0,.09,0c.84-.02,1.66-.33,2.31-.87.85-.71,1.34-1.75,1.34-2.86v-.13c0-.82-.27-1.62-.77-2.27h.16l-.69-.58c-.16-.13-.33-.26-.51-.36-.02-.01-.04-.03-.07-.04-.05-.03-.09-.05-.14-.08h-.02s-.04-.03-.05-.03c-.17-.08-.34-.15-.51-.2l-.07-.02c-.06-.02-.11-.03-.17-.04l-.08-.02c-.05-.01-.11-.02-.17-.03-.02,0-.05,0-.07-.01-.02,0-.05,0-.07-.01h-.02s-.05,0-.07,0c-.03,0-.05,0-.09,0-.03,0-.05,0-.08,0-.05,0-.11,0-.16,0-.03,0-.06,0-.09,0h-3.41v7.52h1.17v.06ZM104.52,100.65v-4.67h2.46c.59.58.93,1.38.93,2.21v.12c0,.9-.39,1.76-1.08,2.34h-2.32Z"/>
    <polygon class="cls-3" points="116.82 100.97 113.56 97.71 112.34 98.93 115.6 102.18 115.59 102.19 116.03 102.63 116.03 116.23 117.76 116.23 117.76 102.47 121.41 98.82 120.19 97.6 116.82 100.97"/>
    <polygon class="cls-3" points="121.32 95.13 120.13 93.94 116.76 97.3 113.42 93.96 112.23 95.16 116.77 99.69 121.32 95.13"/>
    <path class="cls-3" d="M142.71,95.36c0-.4-.32-.72-.72-.72h-.24c-.4,0-.72.32-.72.72v17.64c-.45.99-1.53,1.58-2.91,1.58s-2.37-.59-2.82-1.65v-17.72c0-.39-.32-.7-.7-.7h-.28c-.39,0-.7.32-.7.7v16.16c-.01.13-.02.25-.02.38s0,.26.02.39c.08.98.47,1.88,1.11,2.62.87,1,2.13,1.57,3.46,1.57s2.55-.56,3.42-1.53c.6-.67.98-1.49,1.11-2.37.03-.22.05-.45.05-.68s-.02-.45-.05-.65v-15.72Z"/>
    <path class="cls-3" d="M90.82,118.38h-2.14v6.38h2.14c.51,0,.96-.09,1.33-.28.38-.19.68-.47.89-.84.2-.35.3-.78.3-1.27v-1.62c0-.74-.23-1.33-.67-1.75-.44-.42-1.06-.63-1.83-.63ZM91.85,120.73v1.69c0,.31-.08.53-.25.69-.17.16-.42.24-.76.24h-.71v-3.54h.71c.34,0,.59.08.76.24.17.16.25.38.25.69Z"/>
    <path class="cls-3" d="M103.4,122.4c0,.33-.08.58-.23.75-.15.16-.36.24-.65.24s-.5-.08-.65-.24c-.15-.16-.23-.42-.23-.75v-4.01h-1.46v3.98c0,.76.21,1.37.62,1.8.41.44.99.66,1.72.66s1.31-.22,1.73-.66c.41-.43.62-1.04.62-1.8v-3.98h-1.46v4.01Z"/>
    <path class="cls-3" d="M115.95,121.5c.09-.08.17-.16.24-.26.21-.29.31-.62.31-.98,0-.56-.17-1.02-.51-1.36-.34-.35-.84-.52-1.49-.52h-2.59v6.38h2.65c.6,0,1.09-.17,1.45-.52.37-.35.56-.81.56-1.37h0c0-.42-.12-.79-.36-1.1-.08-.1-.17-.2-.27-.28ZM113.38,120.81v-1.02h.98c.25,0,.44.05.54.13.09.08.14.2.14.39s-.04.3-.12.38c-.09.08-.24.12-.45.12h-1.09ZM115.11,122.8h0c0,.18-.05.31-.16.41-.08.07-.26.16-.68.16h-.9v-1.17h1.09c.25,0,.42.05.5.14.1.11.14.26.14.46Z"/>
    <path class="cls-3" d="M126.26,118.38h-1.14l-2.35,6.38h1.57l.43-1.26h1.84l.43,1.26h1.57l-2.34-6.35v-.03ZM126.12,122.09h-.86l.43-1.26.43,1.26Z"/>
    <rect class="cls-3" x="135.13" y="118.38" width="1.46" height="6.38"/>
  </g>
</svg>